<svg width="512" height="512" viewBox="0 0 512 512" fill="none" xmlns="http://www.w3.org/2000/svg">
  <rect width="512" height="512" rx="112" fill="#05070D"/>
  <circle cx="352" cy="122" r="150" fill="#55F0FF" fill-opacity="0.2"/>
  <circle cx="142" cy="372" r="150" fill="#9B7CFF" fill-opacity="0.22"/>
  <path d="M142 319V193h28l48 73 48-73h28v126h-32v-68l-34 51h-20l-34-51v68h-32Z" fill="white"/>
  <path d="M315 321c-21 0-39-5-54-16l15-27c13 9 27 14 42 14 11 0 18-4 18-11 0-6-5-9-17-12l-18-4c-25-6-38-18-38-36 0-23 20-38 51-38 19 0 36 5 50 15l-15 26c-12-8-24-12-36-12-10 0-16 4-16 10 0 5 5 8 17 11l18 4c26 6 39 18 39 37 0 24-21 39-56 39Z" fill="#55F0FF"/>
  <rect x="92" y="92" width="328" height="328" rx="78" stroke="white" stroke-opacity="0.14" stroke-width="2"/>
</svg>
